<?xml version="1.0" encoding="utf-8"?>
<!-- Generator: Adobe Illustrator 18.0.0, SVG Export Plug-In . SVG Version: 6.00 Build 0)  -->
<!DOCTYPE svg PUBLIC "-//W3C//DTD SVG 1.1//EN" "http://www.w3.org/Graphics/SVG/1.1/DTD/svg11.dtd">
<svg version="1.1" id="Layer_1" xmlns="http://www.w3.org/2000/svg" xmlns:xlink="http://www.w3.org/1999/xlink" x="0px" y="0px"
	 viewBox="0 0 100 100" enable-background="new 0 0 100 100" xml:space="preserve">
<path fill="#FFFFFF" d="M84,71.9c0,11.3-15.2,20.5-33.9,20.5s-33.9-9.2-33.9-20.5"/>
<path fill="#FFFFFF" d="M16,27.9C16,16.6,31.2,7.4,49.9,7.4s33.9,9.2,33.9,20.5"/>
<circle fill="none" stroke="#FFFFFF" stroke-width="3" stroke-miterlimit="10" cx="50" cy="50" r="42.6"/>
<line fill="none" stroke="#FFFFFF" stroke-width="3" stroke-miterlimit="10" x1="14.5" y1="27.9" x2="85.8" y2="27.9"/>
<line fill="none" stroke="#FFFFFF" stroke-width="3" stroke-miterlimit="10" x1="14.5" y1="72.9" x2="85.8" y2="72.9"/>
<g>
	<path fill="#FFFFFF" d="M54.6,33.8L51,33.9L46,34l-0.8,0c-0.9,0-1.3-0.3-1.3-1c0-0.6,0.3-0.9,0.8-1c0.1,0,0.6-0.1,1.3-0.1h33
		c1.1,0,1.8,0.1,2,0.2c0.4,0.1,0.5,0.4,0.5,0.9c0,0.6-0.5,0.9-1.4,0.9l-2.3-0.1l-6.2-0.1h-0.5H71v34.9l0,0H54.6"/>
	<path fill="#FFFFFF" d="M24.5,68.7h24.9c0.7,0,1.2,0,1.3-0.1c0.5-0.1,0.8-0.4,0.8-1c0-0.6-0.4-1-1.3-1l-0.8,0l-5.1,0.1l-3.5,0.1
		l0,0V32l0,0H24.5"/>
</g>
</svg>
